<svg width="220" height="415" viewBox="0 0 220 415" fill="none" xmlns="http://www.w3.org/2000/svg">
<g clip-path="url(#clip0_2033_199)">
<path d="M61.4299 61.1115C61.6978 62.8081 62.0215 64.315 63.2606 65.7214C65.2811 68.0207 66.9667 70.6214 68.7974 73.0882C70.0589 74.7848 71.3426 76.448 72.5817 78.1557C73.2068 79.0152 73.7538 79.9305 74.3343 80.8234C74.4459 80.79 74.5575 80.7676 74.6692 80.7341C74.6692 79.9305 74.6468 79.1157 74.6692 78.312C74.7361 76.727 74.8031 75.142 74.9148 73.5682C75.0264 71.9832 75.2162 70.4094 75.3278 68.8355C75.4952 66.4357 75.5734 64.0359 75.7855 61.6473C75.9641 59.5823 76.2208 57.5285 76.5557 55.4859C76.9018 53.3763 77.3594 51.2778 77.8283 49.1794C77.9622 48.5767 77.9511 48.1972 77.4376 47.7284C76.1873 46.601 74.9482 45.4402 73.8654 44.1454C71.8003 41.6898 69.9137 39.089 67.8263 36.6446C66.2411 34.7917 64.522 33.0504 62.7806 31.3427C61.6196 30.2041 60.3247 29.1996 59.0633 28.1615C58.4494 27.6481 58.0921 27.7709 57.8131 28.5968C56.6298 32.1798 56.9312 35.8186 57.3554 39.4351C57.7238 42.5269 58.2484 45.5964 58.7731 48.666C59.2308 51.2778 59.7666 53.8786 60.3136 56.4793C60.6373 58.0308 61.1508 59.5488 61.3964 61.1115H61.4299Z" fill="#FAFBFB"/>
<path d="M87.4061 47.8065C93.6351 53.1084 98.6584 59.3814 103.447 66.0674C103.604 65.6209 103.849 65.2526 103.86 64.8731C103.972 62.3058 105.2 59.9618 105.222 57.3611C105.233 55.8654 105.803 54.3697 106.104 52.8628C106.283 51.9699 106.952 51.2332 106.071 50.1282C105.434 49.3468 105.557 47.9628 105.345 46.8466C105.289 46.5229 105.334 46.1657 105.233 45.8532C105.032 45.2393 104.731 44.6588 104.541 44.0449C104.218 42.9957 104.005 41.9018 103.648 40.8638C103.001 38.9551 102.309 37.0687 101.605 35.1824C100.366 31.8561 99.2054 28.5075 97.8547 25.2259C96.4928 21.8885 94.9635 18.6292 93.4565 15.3476C92.9318 14.1868 92.2732 13.0929 91.6815 11.9656C91.5364 11.9991 91.4025 12.0437 91.2573 12.0772C91.0118 13.5171 90.7215 14.9458 90.5541 16.3969C90.342 18.1493 90.2415 19.9129 90.0629 21.6764C89.9178 23.094 89.5941 24.5116 89.6276 25.918C89.6499 26.8556 89.6387 27.6927 89.1922 28.5187C89.0359 28.7977 89.0247 29.1773 88.9913 29.5233C88.8238 31.2869 88.9354 33.1286 88.4554 34.8029C87.6964 37.5152 88.154 40.2387 88.0536 42.9399C87.9978 44.6253 88.2098 46.2885 87.3838 47.8176L87.4061 47.8065Z" fill="#FAFBFB"/>
<path d="M125.963 87.3643C125.35 89.5967 124.68 91.8179 124.043 94.0391C123.63 95.4902 123.307 96.9859 122.782 98.4034C122.012 100.48 121.096 102.5 120.248 104.554C120.159 104.755 120.125 105.011 120.159 105.235C120.538 107.869 120.951 110.492 121.32 113.126C121.632 115.425 121.922 117.736 120.962 119.979C120.739 120.504 120.717 121.129 120.605 121.71C120.706 121.732 120.817 121.765 120.918 121.788C121.208 121.118 121.42 120.392 121.8 119.779C122.659 118.361 123.608 116.999 124.523 115.615C124.613 115.47 124.68 115.314 124.758 115.157C125.249 114.108 125.729 113.059 126.209 111.999C126.443 111.496 126.678 111.005 126.901 110.503C127.47 109.242 128.017 107.969 128.598 106.708C129.044 105.737 129.58 104.799 129.96 103.806C130.54 102.288 131.02 100.725 131.534 99.1848C132.46 96.3496 133.443 93.5257 134.291 90.6571C135.017 88.2126 135.608 85.7235 136.2 83.2344C136.568 81.6829 136.892 80.1091 137.138 78.5352C137.473 76.4033 137.763 74.2714 137.964 72.1283C138.31 68.6123 138.6 65.0963 138.868 61.5691C138.98 60.0511 138.924 58.5219 139.024 57.0039C139.292 53.3763 139.616 49.7487 139.895 46.121C140.107 43.3752 140.286 40.6182 140.509 37.8724C140.71 35.3833 141.034 32.9165 141.179 30.4274C141.313 28.1169 141.301 25.7952 141.324 23.4847C141.335 21.7992 141.447 20.0914 141.268 18.4172C140.888 15.0351 139.873 11.8205 138.265 8.80675C137.997 8.30447 137.584 7.89148 137.249 7.43384C137.104 7.46732 136.948 7.48965 136.803 7.52313C136.624 9.5546 136.367 11.5749 136.289 13.6064C136.144 17.4572 136.122 21.3081 135.999 25.1478C135.954 26.7328 135.82 28.3178 135.675 29.8916C135.541 31.3538 135.307 32.816 135.162 34.2782C134.95 36.4548 134.838 38.6314 134.57 40.7968C134.28 43.2078 133.878 45.6076 133.51 48.0074C133.119 50.597 132.773 53.2089 132.304 55.7873C131.746 58.8903 131.065 61.971 130.451 65.0628C129.201 71.347 127.962 77.6423 126.711 83.9376C126.477 85.0873 126.243 86.237 125.941 87.3755L125.963 87.3643Z" fill="#FAFBFB"/>
<path d="M37.9431 52.461C38.7691 53.7446 38.9589 55.4301 39.5282 56.9034C40.3543 59.0354 41.2919 61.1226 42.1403 63.2434C42.4864 64.1029 42.6873 65.0293 43.078 65.8665C43.692 67.1501 44.4622 68.3667 45.0762 69.6503C45.8688 71.3246 46.5497 73.0547 47.2976 74.7625C48.693 77.9213 50.0772 81.0801 51.5172 84.2166C51.8745 84.998 52.5331 85.6454 52.9126 86.4267C53.6605 87.967 54.2745 89.5744 55.0001 91.1259C56.0048 93.2801 56.9648 95.4679 58.148 97.5328C58.8401 98.7495 59.7667 99.9549 60.8718 100.792C62.8142 102.265 64.9909 103.437 67.0561 104.777C68.6189 105.793 70.1594 106.842 71.6776 107.925C72.6264 108.605 73.5083 109.398 74.446 110.101C75.3502 110.782 76.2991 111.396 77.2033 112.066C77.7614 112.479 78.2861 112.947 78.8219 113.394C78.8777 113.36 78.9335 113.327 78.9893 113.293C78.9224 113.048 78.8554 112.802 78.7772 112.568C78.1298 110.67 77.2814 108.829 76.8795 106.875C76.2656 103.806 75.8414 100.692 75.54 97.5775C75.1381 93.4141 74.9372 89.2395 74.6358 85.0761C74.6246 84.8529 74.5241 84.6185 74.4013 84.4399C73.2069 82.7879 72.046 81.1136 70.7734 79.5286C69.0431 77.3744 67.2347 75.276 65.4486 73.1664C64.4886 72.0278 63.5286 70.8893 62.5351 69.7843C61.3965 68.5342 60.2132 67.3287 59.0522 66.1009C57.3778 64.3261 55.7145 62.5402 54.0512 60.7655C53.9061 60.6204 53.7498 60.4864 53.6047 60.3413C52.4772 59.1135 51.3833 57.841 50.2112 56.6579C49.4632 55.91 48.5814 55.2961 47.8 54.5929C46.0362 52.9968 44.3171 51.3671 42.5534 49.7821C41.6826 49.0008 40.7673 48.2753 39.8631 47.5498C38.2221 46.2438 36.57 44.949 34.9179 43.6654C34.8956 43.6431 34.8063 43.7212 34.6611 43.777C35.1746 45.1611 35.6211 46.5898 36.2128 47.9516C36.8491 49.425 36.9942 51.0434 37.9207 52.4722L37.9431 52.461Z" fill="#FAFBFB"/>
<path d="M105.468 68.9137C105.301 69.0922 105.345 69.628 105.491 69.8959C106.116 71.0456 106.841 72.1283 107.478 73.2668C108.136 74.45 108.728 75.6666 109.364 76.8609C110.235 78.5017 111.195 80.109 111.976 81.7945C113.037 84.1162 113.963 86.4937 114.934 88.86C115.113 89.2841 115.225 89.7418 115.37 90.1883C116.051 92.1639 116.743 94.1284 117.435 96.1041C117.904 97.4212 118.384 98.7383 118.853 100.055H119.21C119.645 98.7495 120.17 97.477 120.505 96.1599C121.208 93.4475 121.833 90.7129 122.481 87.9782C123.083 85.4556 123.731 82.9442 124.256 80.4104C125.249 75.5885 126.187 70.7554 127.102 65.9111C127.638 63.0648 128.118 60.2074 128.553 57.3387C128.698 56.3565 128.71 55.3408 128.676 54.3474C128.631 52.8628 128.475 51.3894 128.386 49.9049C128.241 47.4716 128.118 45.0383 127.962 42.605C127.928 42.1251 127.727 41.6563 127.683 41.1875C127.56 39.9373 127.537 38.6872 127.37 37.4482C127.203 36.1981 126.912 34.9703 126.678 33.7201C126.376 32.0682 126.187 30.3827 125.751 28.7642C124.814 25.2817 123.932 21.788 123.15 18.2609C122.726 16.341 122.101 14.4658 121.487 12.6018C121.018 11.1731 120.46 9.77783 119.891 8.39375C119.4 7.19942 118.819 6.04975 118.283 4.87775C118.149 4.91123 118.015 4.94472 117.881 4.9782C117.658 6.46274 117.446 7.95844 117.212 9.44297C116.732 12.3562 116.229 15.2695 115.749 18.1828C115.537 19.4775 115.403 20.7835 115.135 22.0671C114.923 23.0717 114.488 24.0204 114.298 25.025C113.963 26.7328 113.818 28.474 113.472 30.1818C112.813 33.4411 112.01 36.6892 111.373 39.9485C110.826 42.6943 110.447 45.4736 109.956 48.2306C109.755 49.3803 109.453 50.5188 109.208 51.6685C108.862 53.287 108.527 54.9054 108.203 56.5239C107.835 58.3656 107.489 60.2185 107.132 62.0714C106.908 63.2322 106.562 64.3931 106.495 65.5651C106.428 66.7929 106.395 67.9537 105.491 68.9248L105.468 68.9137Z" fill="#FAFBFB"/>
<path d="M114.197 126.386C114.878 124.355 115.448 122.29 116.218 120.292C117.178 117.792 116.877 115.213 116.798 112.668C116.743 110.682 116.318 108.695 115.872 106.741C115.303 104.241 114.566 101.774 113.84 99.3076C113.528 98.2249 113.025 97.1868 112.679 96.1153C112.199 94.6419 111.864 93.1127 111.306 91.6728C110.134 88.6368 108.895 85.6231 107.611 82.6317C106.808 80.7565 105.948 78.9147 105.021 77.1065C104.05 75.2313 102.945 73.4342 101.929 71.5814C101.382 70.588 100.969 69.5164 100.378 68.5453C99.8418 67.6412 99.1386 66.8375 98.5358 65.9669C96.9953 63.7457 95.5329 61.4575 93.9255 59.2809C92.8873 57.8745 91.6594 56.6132 90.5096 55.2961C87.5402 51.9029 84.5597 48.5208 81.5792 45.1276C81.4564 45.1276 81.3336 45.1276 81.2108 45.1276C80.8871 46.5675 80.5634 48.0186 80.2396 49.4584C79.3243 53.5437 79.3578 57.7183 79.1233 61.8705C79.0229 63.6341 79.0229 65.3977 78.9447 67.1501C78.8778 68.802 78.6992 70.4652 78.688 72.1171C78.688 73.7021 78.8778 75.2871 78.8778 76.8721C78.8778 79.417 78.7438 81.9619 78.7438 84.518C78.7438 85.757 78.9782 86.996 79.034 88.2349C79.1122 90.3334 79.0675 92.443 79.2015 94.5414C79.3131 96.3273 79.7596 98.1021 79.7708 99.888C79.8043 103.304 80.3513 106.652 81.4452 109.833C82.2936 112.334 83.5885 114.7 84.9169 116.999C85.9216 118.74 87.25 120.281 88.4668 121.888C89.2928 122.971 90.13 124.054 91.0566 125.058C91.8491 125.918 92.7533 126.699 93.6464 127.458C94.8743 128.507 96.0241 129.701 97.4195 130.46C98.6027 131.108 99.7079 132.034 101.293 131.99C102.8 131.945 104.329 132.38 105.848 132.537C106.205 132.57 106.607 132.403 106.941 132.246C107.935 131.789 108.884 131.208 109.9 130.806C112.009 129.969 113.494 128.552 114.22 126.398L114.197 126.386Z" fill="#FAFBFB"/>
<path d="M19.1223 60.5311C19.2674 60.5869 19.3679 60.7655 19.5018 60.8771C21.0088 62.183 22.4935 63.5336 24.0452 64.7837C26.0768 66.4245 28.2201 67.9314 30.2406 69.5834C32.5848 71.5032 34.8732 73.5124 37.1505 75.5215C39.2715 77.3856 41.3589 79.2608 43.4241 81.1806C44.9422 82.587 46.3934 84.0492 47.8781 85.4891C47.9339 85.4668 47.9897 85.4333 48.0567 85.411C47.4204 84.1608 46.7506 82.933 46.1478 81.6606C45.7683 80.8569 45.5897 79.964 45.1767 79.1826C44.4511 77.7874 43.558 76.4814 42.8659 75.075C41.8055 72.9543 40.6668 70.8558 39.9077 68.6234C39.0482 66.0785 37.05 64.7503 35.0742 63.3662C33.1541 62.0268 31.089 60.8771 29.1355 59.5823C27.2154 58.321 25.3735 56.9481 23.4535 55.6756C21.0088 54.0571 18.5306 52.4833 16.0525 50.9206C15.472 50.5523 14.8134 50.3179 14.2217 49.9719C13.0608 49.2798 11.9445 48.5432 10.7835 47.8511C10.6384 47.7618 10.4152 47.84 10.1919 47.84C11.6542 50.4853 13.005 53.0861 14.5231 55.5863C15.7064 57.5173 16.7781 59.6381 19.1223 60.5311Z" fill="#FAFBFB"/>
<path d="M216.919 385.432C216.451 382.206 215.792 379.003 215.189 375.799C214.598 372.652 214.095 369.482 213.325 366.379C212.499 363.03 211.416 359.748 210.4 356.456C209.317 352.94 208.168 349.446 207.04 345.941C206.75 345.037 206.46 344.133 206.103 343.251C205.578 341.956 204.953 340.695 204.439 339.389C203.613 337.28 202.888 335.136 202.028 333.049C201.213 331.051 200.253 329.109 199.394 327.122C198.3 324.566 197.273 321.977 196.167 319.421C195.397 317.635 194.527 315.882 193.7 314.13C193.042 312.746 192.394 311.35 191.725 309.966C190.731 307.924 189.726 305.892 188.722 303.85C187.661 301.695 186.623 299.53 185.529 297.409C184.837 296.07 184.022 294.786 183.297 293.458C182.47 291.929 181.745 290.344 180.897 288.837C179.546 286.437 178.117 284.082 176.733 281.704C175.326 279.271 173.964 276.815 172.535 274.404C170.66 271.246 168.718 268.132 166.842 264.984C165.86 263.343 164.978 261.646 164.018 259.994C162.846 257.974 161.629 255.976 160.468 253.956C159.676 252.594 158.939 251.21 158.169 249.837C157.131 247.984 156.081 246.143 155.054 244.29C153.503 241.443 151.984 238.575 150.41 235.74C149.004 233.217 147.542 230.717 146.113 228.205C144.807 225.906 143.478 223.618 142.239 221.285C140.989 218.919 139.828 216.496 138.633 214.108C137.573 211.987 136.49 209.877 135.452 207.746C134.671 206.149 133.945 204.52 133.175 202.912C132.07 200.591 130.92 198.28 129.826 195.936C129.056 194.284 128.364 192.61 127.627 190.947C126.767 188.994 125.874 187.051 125.037 185.098C124.211 183.178 123.429 181.236 122.615 179.316C121.61 176.95 120.482 174.628 119.612 172.217C118.507 169.192 117.558 166.123 116.642 163.031C115.984 160.832 115.392 158.6 114.968 156.345C114.499 153.912 114.276 151.434 113.907 148.967C113.561 146.612 113.126 144.268 112.836 141.913C112.601 139.97 112.512 137.995 112.345 135.974C111.876 136.298 111.485 136.533 111.139 136.823C110.748 137.146 110.112 137.481 110.079 137.861C109.833 140.595 109.465 143.352 109.632 146.065C109.833 149.157 110.536 152.226 111.061 155.296C111.53 157.963 112.066 160.62 112.568 163.276C112.858 164.806 113.026 166.379 113.461 167.864C113.874 169.304 114.053 170.777 115.024 172.117C115.772 173.144 115.761 174.695 116.229 175.956C117.379 179.138 118.551 182.319 119.813 185.455C121.376 189.317 123.039 193.146 124.657 196.985C126.22 200.725 127.705 204.497 129.368 208.192C131.031 211.909 132.862 215.548 134.637 219.209C136.021 222.055 137.394 224.901 138.846 227.703C140.018 229.98 141.346 232.19 142.518 234.478C144.706 238.72 146.794 243.006 148.982 247.248C150.098 249.402 151.359 251.489 152.509 253.632C154.574 257.45 156.606 261.278 158.638 265.107C159.665 267.038 160.647 268.98 161.685 270.9C163.304 273.869 164.956 276.815 166.619 279.762C167.501 281.325 168.506 282.832 169.32 284.439C170.95 287.654 172.468 290.935 174.076 294.161C175.282 296.606 176.61 298.994 177.771 301.45C178.843 303.716 179.769 306.06 180.785 308.359C181.611 310.234 182.504 312.076 183.308 313.962C183.911 315.391 184.402 316.864 184.993 318.304C185.641 319.867 186.389 321.385 187.003 322.959C188.286 326.252 189.514 329.567 190.753 332.882C191.948 336.063 193.198 339.211 194.281 342.425C195.33 345.517 196.223 348.654 197.161 351.779C197.965 354.469 198.768 357.148 199.472 359.86C200.019 362.003 200.398 364.202 200.878 366.368C201.291 368.22 201.816 370.062 202.129 371.937C202.765 375.732 203.39 379.539 203.836 383.356C204.205 386.504 204.45 389.685 204.506 392.855C204.562 395.556 204.328 398.268 204.138 400.981C204.004 402.9 203.814 404.831 203.513 406.729C203.267 408.336 202.888 409.921 202.441 411.484C202.173 412.388 202.664 412.433 203.256 412.477C206.147 412.723 209.038 412.79 211.896 412.243C213.225 411.986 214.665 411.685 215.747 410.959C216.328 410.569 216.339 409.24 216.484 408.314C216.841 405.992 217.265 403.659 217.411 401.315C217.578 398.425 217.567 395.522 217.478 392.62C217.411 390.221 217.243 387.798 216.897 385.421L216.919 385.432Z" fill="#FAFBFB"/>
<path d="M32.8196 88.2349C34.9406 89.0498 37.1285 89.7083 39.283 90.445C40.0979 90.724 40.8904 91.0589 41.7053 91.3603C43.4802 92.03 45.2998 92.5992 47.0189 93.3917C48.7827 94.1954 50.4348 95.2335 52.1539 96.1264C52.7232 96.4166 53.3372 96.6064 54.1186 96.9189C53.5158 95.8474 52.9688 94.9991 52.5334 94.1061C51.819 92.6439 51.2943 91.0812 49.8431 90.1325C49.3296 89.7976 48.805 89.4739 48.3473 89.0609C46.9073 87.7773 45.5454 86.4155 44.0719 85.1877C41.6049 83.1339 39.0709 81.1694 36.5927 79.138C35.2531 78.0441 34.014 76.8275 32.6522 75.7671C30.3637 73.9812 27.986 72.3069 25.6976 70.521C23.7441 69.003 21.9022 67.3287 19.9152 65.8441C15.8072 62.7746 11.6434 59.7944 7.50196 56.7807C7.33452 56.6579 7.20056 56.4793 7.02196 56.3788C5.76054 55.7091 4.48796 55.0617 3.22654 54.4143C3.1484 54.5148 3.0591 54.6153 2.98096 54.7269C3.13724 55.0059 3.24887 55.3185 3.43864 55.5752C4.55494 57.0709 5.66007 58.5666 6.82102 60.0288C7.93732 61.4352 9.07594 62.8193 10.2592 64.1587C12.5476 66.7483 14.9142 69.2485 17.1579 71.8604C19.4798 74.5504 21.6455 77.3856 24.0008 80.0533C26.0437 82.3638 28.2093 84.5515 30.4084 86.7169C31.0782 87.3755 31.9489 87.9001 32.8308 88.2349H32.8196Z" fill="#FAFBFB"/>
<path d="M91.5813 132.012C90.2418 130.751 88.958 129.411 87.8194 127.96C86.3347 126.052 84.9729 124.042 83.6556 122.011C82.6621 120.471 81.8249 118.83 80.9095 117.245C80.8314 117.1 80.6751 116.988 80.53 116.899C79.8156 116.419 79.0676 115.983 78.3867 115.481C77.3039 114.689 76.2992 113.762 75.1718 113.037C72.7829 111.474 70.3494 109.99 67.927 108.494C66.6656 107.712 65.393 106.953 64.0869 106.25C62.5576 105.435 60.9948 104.699 59.4431 103.917C56.9203 102.634 54.4086 101.328 51.8635 100.067C50.9034 99.5866 49.8988 99.1959 48.9164 98.7718C46.4494 97.7226 44.0047 96.6287 41.5154 95.6465C39.3833 94.8093 37.2176 94.0168 35.0297 93.3471C32.719 92.6327 30.3636 92.0635 28.0193 91.4719C27.0147 91.2152 25.9877 91.0477 24.9718 90.858C22.2816 90.3445 19.5913 89.8534 16.5996 89.2953C16.9568 89.753 17.0796 89.9985 17.2806 90.1548C18.5866 91.2152 19.9039 92.2644 21.2434 93.2913C21.9244 93.8159 22.6499 94.2959 23.342 94.7981C24.6704 95.7692 25.9653 96.8073 27.3384 97.7114C29.4259 99.0955 31.6027 100.379 33.7013 101.752C35.4874 102.924 37.2176 104.163 38.9591 105.391C40.9572 106.786 42.9666 108.17 44.9424 109.588C45.5452 110.023 46.0252 110.615 46.628 111.039C47.4094 111.597 48.2913 112.021 49.0727 112.579C52.243 114.834 55.3798 117.122 58.5501 119.377C59.5659 120.091 60.6822 120.66 61.698 121.364C64.433 123.272 67.0451 125.404 69.8917 127.123C74.2229 129.735 78.5988 132.291 83.4324 133.965C85.9999 134.858 88.6008 135.405 91.2688 135.718C92.1507 135.818 93.0549 135.841 93.9479 135.863C94.9749 135.885 96.0019 135.863 97.2075 135.863C96.1917 135.215 95.3544 134.724 94.5619 134.166C93.546 133.474 92.4744 132.827 91.5813 131.99V132.012Z" fill="#FAFBFB"/>
<path d="M218.504 380.822C218.024 378.746 218.013 376.57 217.556 374.482C216.707 370.609 215.736 366.769 214.742 362.941C213.95 359.905 213.079 356.891 212.175 353.889C211.36 351.165 210.456 348.453 209.585 345.74C209.529 345.573 209.451 345.417 209.395 345.26C208.558 343.039 207.721 340.807 206.873 338.586C206.136 336.655 205.421 334.724 204.629 332.826C203.49 330.125 202.285 327.457 201.112 324.778C199.326 320.704 197.596 316.608 195.743 312.567C194.292 309.397 192.696 306.305 191.155 303.18C190.273 301.394 189.425 299.586 188.509 297.811C187.616 296.103 186.634 294.462 185.73 292.755C184.859 291.114 184.111 289.395 183.185 287.788C181.075 284.127 178.898 280.499 176.755 276.86C175.181 274.181 173.618 271.502 172.033 268.835C170.381 266.055 168.695 263.298 167.054 260.53C165.413 257.751 163.761 254.983 162.176 252.17C160.87 249.848 159.709 247.449 158.392 245.138C156.025 241.008 153.569 236.923 151.18 232.804C150.075 230.895 149.048 228.942 147.999 227C146.514 224.254 145.041 221.508 143.578 218.762C142.484 216.72 141.346 214.688 140.308 212.612C138.287 208.549 136.323 204.453 134.336 200.368C133.532 198.716 132.695 197.064 131.947 195.389C130.998 193.246 130.138 191.07 129.212 188.915C128.095 186.337 126.912 183.781 125.818 181.18C124.735 178.624 123.653 176.057 122.748 173.434C122.413 172.463 121.844 171.637 121.487 170.721C120.906 169.215 120.493 167.641 120.114 166.067C119.489 163.511 118.908 160.944 118.35 158.376C117.848 156.111 117.368 153.845 116.91 151.568C116.475 149.402 115.939 147.248 115.738 145.06C115.559 143.073 115.738 141.053 115.805 139.055C115.85 137.537 115.827 136.008 116.039 134.501C116.218 133.296 116.441 131.956 117.111 130.985C118.205 129.4 119.69 128.083 120.962 126.621C121.498 126.007 121.933 125.293 122.402 124.612C123.842 122.547 125.506 120.593 126.644 118.372C128.151 115.437 130.149 112.747 131.143 109.532C131.947 106.931 133.152 104.442 133.934 101.841C134.961 98.4258 135.72 94.9321 136.646 91.4831C137.249 89.2395 137.963 87.0295 138.577 84.7859C138.923 83.5135 139.225 82.2187 139.426 80.9127C139.727 78.9594 139.939 77.0061 140.14 75.0416C140.397 72.5636 140.643 70.0745 140.821 67.5966C140.955 65.833 140.899 64.0582 141.067 62.3058C141.234 60.5087 141.614 58.7452 141.815 56.9481C142.194 53.6107 142.518 50.2621 142.842 46.9135C143.266 42.4264 143.757 37.9282 144.014 33.4299C144.259 28.954 144.393 24.4669 144.315 19.991C144.237 14.9905 142.73 10.3694 139.772 6.28416C138.834 4.98937 137.059 4.39779 135.575 4.88892C135.318 4.96705 135.039 5.2461 134.949 5.49166C134.67 6.27299 134.402 7.07665 134.28 7.89147C134.034 9.63273 133.844 11.3963 133.699 13.1487C133.61 14.2538 133.666 15.37 133.599 16.4861C133.442 18.7967 133.242 21.096 133.074 23.4065C132.974 24.8576 132.918 26.3086 132.795 27.7485C132.616 29.9251 132.438 32.1128 132.192 34.2782C131.98 36.1758 131.679 38.0733 131.411 39.9708C131.154 39.6248 131.042 39.2676 131.009 38.8993C130.853 36.8566 130.819 34.8029 130.551 32.7714C130.306 30.9297 129.803 29.1214 129.424 27.302C128.91 24.7906 128.408 22.268 127.894 19.7454C127.85 19.511 127.816 19.2655 127.749 19.0311C127.236 17.3568 126.711 15.6937 126.22 14.0194C125.729 12.3339 125.439 10.5703 124.747 8.97418C123.697 6.52972 122.503 4.11874 121.141 1.83055C119.98 -0.122784 118.183 -0.881795 116.296 1.14967C115.626 1.8752 114.89 2.53375 114.912 3.79505C114.934 5.00054 114.331 6.20602 114.119 7.43383C113.997 8.10355 114.197 8.84024 114.097 9.50995C113.829 11.2066 113.438 12.892 113.137 14.5886C113.014 15.303 113.059 16.0397 112.936 16.754C112.646 18.5399 112.3 20.3258 111.976 22.1118C111.753 23.3396 111.585 24.5674 111.329 25.784C110.938 27.6146 110.436 29.4116 110.09 31.2534C109.61 33.7536 109.23 36.2651 108.806 38.7653C108.516 40.4619 108.236 42.1474 107.935 43.844C107.745 44.8709 107.522 45.8978 107.321 46.9135C106.875 46.188 106.529 45.5741 106.383 44.9155C105.982 43.0515 105.736 41.154 105.289 39.3011C104.754 37.0464 104.184 34.8029 103.47 32.5928C102.398 29.2554 101.204 25.9626 100.054 22.6587C99.7414 21.7769 99.4289 20.8951 99.0605 20.0356C98.5247 18.7632 97.9442 17.5019 97.3749 16.2294C96.4707 14.2203 95.6446 12.1553 94.6065 10.2132C94.1376 9.34252 93.3562 8.41608 92.4855 8.01425C90.5431 7.1213 88.7794 8.95185 88.4333 10.8159C87.7189 14.7002 87.384 18.6516 86.9598 22.5806C86.8594 23.5293 87.1049 24.5227 86.9821 25.4603C86.6584 27.8936 86.2342 30.3158 85.944 32.7602C85.5198 36.3209 85.397 39.8704 85.3635 43.4422C85.3635 44.0226 85.1179 44.5919 84.9393 45.3732C84.437 44.9379 84.1468 44.6477 83.8119 44.4133C83.1421 43.9556 82.4835 43.431 81.7355 43.1073C80.6304 42.6162 80.2397 43.6319 79.6927 44.257C79.6034 44.3575 79.503 44.4467 79.3132 44.6142C78.9895 44.3351 78.6546 44.1119 78.3867 43.8105C77.3597 42.672 76.355 41.5 75.3503 40.3503C74.6917 39.6025 74.0331 38.8435 73.3968 38.0845C72.2917 36.7673 71.2647 35.3721 70.0702 34.1331C68.5409 32.5593 66.7102 31.2534 65.3148 29.5791C63.819 27.7932 61.9994 26.5654 60.0236 25.4938C58.3826 24.6009 56.4849 25.0139 56.0607 26.6658C55.4021 29.2331 54.989 31.9008 54.7993 34.5461C54.643 36.6892 54.9221 38.8769 55.123 41.0312C55.2793 42.7166 55.603 44.3798 55.8821 46.0541C56.1612 47.7283 56.4514 49.4026 56.7863 51.0658C57.0989 52.6284 57.4226 54.1799 57.8356 55.7203C58.3045 57.4727 58.8626 59.1916 59.4654 61.1896C57.7017 59.1693 56.1053 57.3499 54.5202 55.5305C54.1183 55.0617 53.7276 54.5706 53.2923 54.1353C52.4104 53.2535 51.495 52.4164 50.6132 51.5346C49.8652 50.7867 49.1731 49.9942 48.4141 49.2575C47.4652 48.3311 46.4717 47.4493 45.5005 46.5452C44.4177 45.5295 43.3795 44.4691 42.2521 43.5091C41.1581 42.5715 39.9748 41.7456 38.8585 40.8303C37.2399 39.502 35.7664 38.0398 33.5115 37.6826C32.0603 37.4482 30.5533 38.0621 30.3412 39.5355C30.1961 40.5401 30.3077 41.5893 30.3077 42.6162C30.3077 44.5919 30.9105 46.4447 31.6026 48.253C32.5068 50.6081 33.545 52.9075 34.4603 55.2626C34.8734 56.323 35.1524 57.4504 35.4985 58.5442C35.398 58.5889 35.3087 58.6335 35.2083 58.6782C34.025 57.9973 32.8305 57.3499 31.6696 56.6356C29.8947 55.5305 28.1421 54.3808 26.4007 53.2312C25.2174 52.4498 24.1011 51.568 22.8955 50.8202C19.8926 48.9673 16.8451 47.1703 13.8311 45.3285C12.1455 44.3016 10.5604 43.1073 8.49524 42.8618C7.49057 42.739 6.67567 43.2301 6.35195 44.2682C5.90543 45.6746 6.43009 46.9359 7.05522 48.0409C7.93709 49.6036 9.12037 50.9876 10.125 52.4833C10.5492 53.1196 10.8506 53.8451 11.2078 54.526C10.7837 54.5483 10.5492 54.4367 10.3148 54.3027C7.82546 52.7847 5.29146 51.4118 2.2663 51.2667C0.770458 51.1885 -0.245374 52.0592 0.111842 53.5214C0.335101 54.459 0.870924 55.3408 1.40675 56.1668C3.5612 59.5153 6.03938 62.6072 8.77431 65.5093C10.6385 67.4849 12.4916 69.4718 14.2777 71.5256C16.1084 73.6352 17.8275 75.8341 19.6247 77.966C21.0536 79.6514 22.5271 81.3034 23.9895 82.9665C25.0053 84.1274 26.0323 85.2882 27.2044 86.6165C26.3895 86.516 25.7979 86.4602 25.2285 86.3709C23.0741 86.0472 20.9196 85.6454 18.754 85.4333C17.3921 85.2994 15.9968 85.4333 14.6237 85.4333C13.4293 85.4333 11.9223 86.7281 12.2795 87.6545C12.8265 89.0386 13.4739 90.5008 14.4674 91.5612C15.874 93.0569 17.6042 94.2512 19.2452 95.5237C21.2657 97.0975 23.2974 98.6602 25.396 100.156C27.4388 101.607 29.5598 102.935 31.6249 104.353C32.1719 104.721 32.6073 105.235 33.1431 105.625C35.1636 107.11 37.2064 108.572 39.2381 110.034C39.4613 110.19 39.7293 110.28 39.9637 110.425C40.9907 111.061 42.0512 111.664 43.0335 112.367C45.0428 113.807 47.0075 115.314 48.9945 116.787C50.6243 117.993 52.2876 119.153 53.8951 120.381C55.3798 121.509 56.764 122.748 58.271 123.841C60.057 125.147 61.9213 126.342 63.752 127.581C66.0181 129.11 68.273 130.628 70.5502 132.135C71.153 132.537 71.7447 132.95 72.381 133.284C73.8768 134.066 75.395 134.802 76.8908 135.573C77.7504 136.008 78.5541 136.555 79.4471 136.89C80.7644 137.381 82.1486 137.705 83.4881 138.14C86.5803 139.167 89.7617 139.647 93.0102 139.658C94.7404 139.658 96.4818 139.557 98.201 139.379C99.3619 139.267 100.634 139.178 101.628 138.653C103.213 137.827 104.876 138.229 106.707 137.705C106.707 139.077 106.607 140.249 106.729 141.399C106.975 143.877 107.388 146.333 107.634 148.811C107.957 152.081 107.98 155.385 108.862 158.6C109.665 161.558 110.179 164.605 111.005 167.552C111.708 170.108 112.624 172.619 113.517 175.119C114.119 176.805 114.834 178.457 115.492 180.131C116.24 182.017 116.977 183.915 117.725 185.801C118.763 188.402 119.79 190.992 120.851 193.581C121.777 195.847 122.737 198.102 123.708 200.368C124.546 202.332 125.405 204.285 126.242 206.25C126.968 207.935 127.638 209.643 128.408 211.306C129.401 213.438 130.484 215.525 131.5 217.646C132.482 219.7 133.353 221.821 134.402 223.841C136.49 227.893 138.678 231.9 140.788 235.941C141.859 237.994 142.831 240.115 143.891 242.18C145.655 245.64 147.441 249.1 149.238 252.549C150.254 254.503 151.337 256.423 152.353 258.376C153.558 260.687 154.686 263.042 155.936 265.341C157.421 268.065 159.028 270.732 160.546 273.445C161.64 275.409 162.667 277.407 163.739 279.372C164.877 281.459 166.094 283.513 167.199 285.622C168.595 288.279 169.901 290.98 171.251 293.648C172.2 295.523 173.238 297.376 174.132 299.273C175.426 302.019 176.643 304.81 177.893 307.578C178.92 309.844 179.981 312.098 180.963 314.387C181.678 316.05 182.258 317.78 182.928 319.465C183.408 320.671 183.977 321.854 184.446 323.059C184.971 324.41 185.384 325.805 185.92 327.156C186.891 329.589 187.974 331.989 188.9 334.433C189.715 336.588 190.385 338.809 191.144 340.985C191.892 343.162 192.718 345.305 193.432 347.493C194.258 350.027 194.984 352.594 195.754 355.161C196.223 356.713 196.748 358.253 197.116 359.838C197.819 362.885 198.422 365.955 199.07 369.024C199.471 370.966 199.94 372.908 200.264 374.862C200.621 377.072 200.811 379.304 201.135 381.514C201.592 384.651 202.128 387.776 202.039 390.98C201.961 394.083 202.173 397.219 201.883 400.3C201.514 404.184 200.778 408.046 200.175 411.908C200.041 412.79 200.409 413.884 201.246 414.185C204.406 415.357 207.766 414.866 211.036 414.576C212.409 414.453 213.805 414.364 215.111 413.917C219.464 412.433 219.252 407.321 219.665 403.537C220.056 399.987 220.156 396.404 219.922 392.844C219.654 388.803 219.476 384.74 218.549 380.755L218.504 380.822ZM130.484 65.0516C131.098 61.9598 131.779 58.8791 132.337 55.7761C132.806 53.1977 133.152 50.597 133.543 47.9962C133.911 45.5964 134.313 43.1966 134.603 40.7856C134.86 38.6202 134.983 36.4325 135.195 34.2671C135.34 32.8049 135.575 31.3427 135.709 29.8804C135.854 28.3066 135.976 26.7216 136.032 25.1366C136.144 21.2858 136.177 17.4349 136.323 13.5952C136.401 11.5637 136.657 9.54344 136.836 7.51197C136.981 7.47848 137.137 7.45616 137.283 7.42267C137.629 7.88031 138.042 8.30446 138.298 8.79559C139.906 11.8093 140.922 15.0239 141.301 18.406C141.491 20.0803 141.379 21.7881 141.357 23.4735C141.335 25.784 141.346 28.1057 141.212 30.4162C141.067 32.9053 140.743 35.3833 140.542 37.8612C140.319 40.607 140.14 43.364 139.928 46.1099C139.649 49.7375 139.314 53.3651 139.057 56.9927C138.946 58.5108 139.013 60.0399 138.901 61.558C138.633 65.0851 138.343 68.6011 137.997 72.1171C137.785 74.2602 137.495 76.3922 137.171 78.5241C136.925 80.0979 136.602 81.6717 136.233 83.2232C135.642 85.7123 135.05 88.2015 134.324 90.6459C133.476 93.5034 132.494 96.3273 131.567 99.1736C131.065 100.714 130.574 102.277 129.993 103.795C129.614 104.788 129.078 105.726 128.631 106.697C128.051 107.958 127.504 109.231 126.934 110.492C126.711 110.994 126.466 111.485 126.242 111.988C125.751 113.037 125.271 114.086 124.791 115.146C124.724 115.303 124.657 115.47 124.557 115.604C123.653 116.988 122.704 118.361 121.833 119.767C121.453 120.381 121.241 121.107 120.951 121.776C120.851 121.754 120.739 121.721 120.639 121.698C120.75 121.118 120.761 120.504 120.996 119.968C121.956 117.714 121.677 115.414 121.353 113.115C120.985 110.481 120.572 107.858 120.192 105.223C120.159 105 120.192 104.743 120.281 104.543C121.119 102.489 122.045 100.468 122.815 98.3923C123.34 96.9747 123.664 95.4902 124.077 94.028C124.713 91.8068 125.383 89.5855 125.997 87.3532C126.309 86.2258 126.544 85.065 126.767 83.9153C128.017 77.6311 129.256 71.3358 130.507 65.0405L130.484 65.0516ZM108.181 56.5016C108.504 54.8831 108.839 53.2647 109.185 51.6462C109.431 50.4965 109.732 49.3691 109.933 48.2083C110.424 45.4513 110.815 42.672 111.351 39.9262C111.998 36.6557 112.791 33.4188 113.45 30.1595C113.796 28.4517 113.952 26.7105 114.276 25.0027C114.465 23.9981 114.912 23.0494 115.113 22.0448C115.381 20.7612 115.515 19.4552 115.727 18.1604C116.207 15.2472 116.709 12.3339 117.189 9.42065C117.435 7.93612 117.636 6.44042 117.859 4.95589C117.993 4.9224 118.127 4.88892 118.261 4.85543C118.797 6.02743 119.377 7.17711 119.868 8.37143C120.438 9.75551 120.996 11.1508 121.465 12.5795C122.079 14.4547 122.693 16.3299 123.128 18.2386C123.92 21.7546 124.802 25.2483 125.729 28.7419C126.164 30.3604 126.354 32.0459 126.655 33.6978C126.89 34.9368 127.18 36.1758 127.347 37.4259C127.515 38.6649 127.537 39.9262 127.66 41.1651C127.705 41.6451 127.917 42.1139 127.939 42.5827C128.095 45.016 128.218 47.4493 128.363 49.8826C128.453 51.3671 128.609 52.8405 128.654 54.325C128.687 55.3185 128.687 56.3342 128.531 57.3164C128.095 60.185 127.615 63.0425 127.08 65.8888C126.164 70.7331 125.227 75.5662 124.233 80.3881C123.708 82.9219 123.061 85.4333 122.458 87.9559C121.811 90.6906 121.186 93.4252 120.482 96.1376C120.136 97.4547 119.623 98.7271 119.187 100.022H118.83C118.361 98.716 117.881 97.3989 117.412 96.0818C116.72 94.1173 116.028 92.1416 115.347 90.166C115.191 89.7306 115.091 89.273 114.912 88.8377C113.941 86.4714 113.014 84.0939 111.954 81.7722C111.183 80.0867 110.212 78.4794 109.342 76.8386C108.705 75.6443 108.114 74.4277 107.455 73.2445C106.819 72.106 106.093 71.0121 105.468 69.8736C105.323 69.6057 105.278 69.0699 105.446 68.8913C106.35 67.9091 106.372 66.7594 106.45 65.5316C106.517 64.3596 106.863 63.1988 107.087 62.0379C107.444 60.1851 107.79 58.3433 108.158 56.4905L108.181 56.5016ZM88.4892 34.7917C88.958 33.1174 88.8575 31.2757 89.025 29.5121C89.0585 29.1772 89.0696 28.7977 89.2259 28.5075C89.6836 27.6816 89.6836 26.8444 89.6613 25.9068C89.6278 24.5004 89.9515 23.0828 90.0966 21.6653C90.2752 19.9129 90.3757 18.1381 90.5878 16.3857C90.7664 14.9346 91.0566 13.5059 91.2911 12.066C91.4362 12.0325 91.5701 11.9879 91.7153 11.9544C92.3069 13.0818 92.9655 14.1756 93.4902 15.3365C94.986 18.6181 96.5153 21.8774 97.8884 25.2148C99.2391 28.4964 100.4 31.8449 101.639 35.1712C102.342 37.0576 103.035 38.9439 103.682 40.8526C104.039 41.8907 104.251 42.9845 104.575 44.0338C104.765 44.6477 105.066 45.2281 105.267 45.842C105.368 46.1545 105.323 46.5005 105.379 46.8354C105.58 47.9516 105.468 49.3468 106.104 50.117C106.997 51.2109 106.316 51.9476 106.138 52.8517C105.836 54.3474 105.267 55.8431 105.256 57.3499C105.234 59.9618 104.006 62.3058 103.894 64.8619C103.872 65.2414 103.637 65.6209 103.481 66.0562C98.6921 59.3702 93.6688 53.0972 87.4398 47.7953C88.2659 46.2773 88.0538 44.603 88.1096 42.9176C88.2101 40.2164 87.7524 37.4929 88.5115 34.7805L88.4892 34.7917ZM58.8068 48.6548C58.271 45.5853 57.7575 42.5157 57.3891 39.4239C56.9537 35.7963 56.6635 32.1575 57.8468 28.5857C58.1258 27.7597 58.4719 27.6369 59.097 28.1503C60.3584 29.1884 61.6533 30.193 62.8143 31.3315C64.5557 33.0393 66.2748 34.7805 67.86 36.6334C69.9363 39.0779 71.834 41.6786 73.8991 44.1342C74.9819 45.4178 76.221 46.5787 77.4713 47.7172C77.9848 48.186 77.996 48.5655 77.862 49.1682C77.3932 51.2555 76.9355 53.354 76.5894 55.4747C76.2545 57.5173 75.9978 59.5711 75.8192 61.6361C75.6071 64.0247 75.5289 66.4357 75.3615 68.8244C75.2499 70.4094 75.0601 71.9832 74.9485 73.557C74.8368 75.142 74.7587 76.727 74.7029 78.3008C74.6694 79.1045 74.7029 79.9193 74.7029 80.723C74.5912 80.7565 74.4796 80.7788 74.368 80.8123C73.7875 79.9193 73.2405 79.004 72.6154 78.1446C71.3763 76.4368 70.0814 74.7737 68.8311 73.0771C67.0004 70.6103 65.3148 68.0096 63.2943 65.7102C62.0552 64.3038 61.7315 62.7858 61.4636 61.1003C61.2068 59.5377 60.7045 58.0196 60.3808 56.4681C59.8338 53.8674 59.298 51.2667 58.8403 48.6548H58.8068ZM34.6836 43.7659C34.8175 43.6989 34.918 43.6319 34.9403 43.6543C36.5925 44.949 38.2446 46.2327 39.8855 47.5386C40.8009 48.2641 41.7163 48.9896 42.5758 49.771C44.3396 51.356 46.0698 52.9856 47.8224 54.5818C48.6038 55.2961 49.4969 55.8989 50.2336 56.6467C51.4057 57.8299 52.4997 59.1023 53.6272 60.3302C53.7611 60.4864 53.9286 60.6092 54.0737 60.7543C55.737 62.529 57.4114 64.315 59.0747 66.0897C60.2356 67.3175 61.4189 68.523 62.5575 69.7731C63.5622 70.8782 64.5111 72.0167 65.4711 73.1552C67.2572 75.2648 69.0656 77.3632 70.7958 79.5175C72.0684 81.1025 73.2294 82.7879 74.4238 84.4287C74.5578 84.6073 74.6471 84.8529 74.6582 85.065C74.9596 89.2284 75.1606 93.4141 75.5624 97.5663C75.8638 100.68 76.2769 103.795 76.902 106.864C77.2927 108.806 78.1522 110.659 78.7997 112.557C78.8778 112.791 78.9448 113.048 79.0118 113.282C78.956 113.316 78.9002 113.349 78.8443 113.383C78.3085 112.936 77.7839 112.467 77.2257 112.054C76.3215 111.385 75.3727 110.771 74.4685 110.09C73.5308 109.387 72.66 108.594 71.7 107.913C70.1819 106.831 68.6414 105.781 67.0786 104.766C65.0246 103.426 62.8478 102.254 60.8943 100.781C59.7891 99.9438 58.8738 98.7383 58.1705 97.5217C56.9872 95.4567 56.0272 93.269 55.0225 91.1147C54.2969 89.5632 53.683 87.9559 52.9351 86.4156C52.5555 85.6342 51.8969 84.9868 51.5397 84.2055C50.0997 81.069 48.7155 77.9102 47.3201 74.7514C46.5722 73.0547 45.8912 71.3246 45.0987 69.6392C44.4958 68.3444 43.7144 67.1389 43.1005 65.8553C42.7098 65.0182 42.5088 64.0917 42.1628 63.2323C41.3032 61.1115 40.3767 59.0242 39.5506 56.8923C38.9813 55.4189 38.7916 53.7335 37.9655 52.4498C37.039 51.0211 36.8939 49.4026 36.2576 47.9293C35.6659 46.5675 35.2083 45.1499 34.7059 43.7547L34.6836 43.7659ZM10.2032 47.8288C10.4264 47.8288 10.6609 47.7507 10.7948 47.84C11.9446 48.532 13.0721 49.2687 14.233 49.9607C14.8246 50.3179 15.4833 50.5412 16.0637 50.9095C18.5419 52.4722 21.0201 54.046 23.4648 55.6645C25.3848 56.9369 27.2267 58.3098 29.1468 59.5711C31.1114 60.8659 33.1654 62.0044 35.0855 63.355C37.0613 64.7391 39.0595 66.0785 39.919 68.6123C40.6781 70.8447 41.8167 72.9431 42.8772 75.0639C43.5805 76.4703 44.4735 77.7762 45.188 79.1715C45.5898 79.9528 45.7796 80.8458 46.1591 81.6494C46.7508 82.9219 47.4206 84.1497 48.068 85.3998C48.0122 85.4221 47.9564 85.4556 47.8894 85.478C46.4047 84.0381 44.9535 82.5647 43.4354 81.1694C41.3702 79.2608 39.2716 77.3744 37.1618 75.5104C34.8845 73.5012 32.5961 71.5032 30.2519 69.5722C28.2314 67.9203 26.0993 66.4022 24.0564 64.7726C22.5048 63.5225 21.0201 62.1719 19.5131 60.8659C19.3791 60.7543 19.2787 60.5757 19.1336 60.5199C16.7893 59.6158 15.7177 57.5062 14.5344 55.5752C13.0051 53.0861 11.6655 50.4742 10.2032 47.8288ZM24.0118 80.0421C21.6564 77.3744 19.4908 74.5504 17.1689 71.8493C14.914 69.2374 12.5474 66.7259 10.2702 64.1475C9.08688 62.8081 7.94825 61.424 6.83196 60.0176C5.67101 58.5554 4.56587 57.0597 3.44957 55.564C3.2598 55.3073 3.13701 55.0059 2.99189 54.7157C3.07003 54.6153 3.15934 54.5148 3.23748 54.4032C4.51006 55.0617 5.77147 55.7091 7.03289 56.3677C7.2115 56.4681 7.34545 56.6467 7.5129 56.7695C11.6544 59.7832 15.8182 62.7746 19.9261 65.833C21.9131 67.3175 23.755 68.9918 25.7086 70.5098C27.997 72.2957 30.3747 73.97 32.6631 75.7559C34.025 76.8163 35.2641 78.033 36.6036 79.1268C39.0818 81.1583 41.627 83.1228 44.0828 85.1766C45.5563 86.4044 46.9182 87.7773 48.3582 89.0498C48.8159 89.4516 49.3406 89.7753 49.8541 90.1213C51.3053 91.0701 51.8411 92.6439 52.5444 94.095C52.9797 94.9991 53.5267 95.8474 54.1295 96.9078C53.3481 96.5952 52.7341 96.4055 52.1648 96.1153C50.4457 95.2223 48.7824 94.1842 47.0298 93.3806C45.3107 92.5881 43.4912 92.0188 41.7163 91.3491C40.9125 91.0477 40.1088 90.7129 39.2939 90.4338C37.1394 89.6972 34.9515 89.0386 32.8305 88.2238C31.9598 87.8889 31.0779 87.3531 30.4082 86.7058C28.2091 84.5404 26.0434 82.3526 24.0006 80.0421H24.0118ZM93.959 135.874C93.066 135.852 92.1729 135.829 91.2799 135.729C88.6119 135.428 86.011 134.869 83.4435 133.976C78.6099 132.291 74.234 129.746 69.9028 127.134C67.0562 125.415 64.4441 123.283 61.7092 121.375C60.6933 120.66 59.577 120.102 58.5612 119.388C55.3909 117.144 52.2541 114.845 49.0838 112.59C48.3024 112.032 47.4205 111.608 46.6391 111.05C46.0363 110.626 45.5563 110.034 44.9535 109.599C42.9777 108.181 40.9683 106.786 38.9702 105.402C37.2176 104.185 35.4873 102.935 33.7124 101.763C31.6138 100.379 29.4482 99.1067 27.3495 97.7226C25.9765 96.8073 24.6816 95.7804 23.3532 94.8093C22.6611 94.2959 21.9355 93.8271 21.2545 93.3025C19.9261 92.2756 18.6089 91.2263 17.2917 90.166C17.0907 90.0097 16.9679 89.7641 16.6107 89.3065C19.6024 89.8646 22.2927 90.3669 24.983 90.8692C25.9988 91.0589 27.0258 91.2263 28.0305 91.4831C30.3747 92.0746 32.7301 92.6551 35.0408 93.3583C37.2287 94.0391 39.3944 94.8205 41.5265 95.6576C44.0158 96.6399 46.4605 97.7337 48.9276 98.783C49.9099 99.2071 50.9146 99.5978 51.8746 100.078C54.4086 101.339 56.9202 102.656 59.4542 103.929C60.9947 104.71 62.5687 105.435 64.098 106.261C65.4041 106.965 66.6767 107.724 67.9381 108.505C70.3716 110.001 72.8052 111.485 75.1829 113.048C76.3103 113.785 77.3039 114.7 78.3978 115.492C79.0899 115.995 79.8378 116.441 80.5411 116.91C80.6862 117.01 80.8425 117.122 80.9207 117.256C81.836 118.841 82.6732 120.482 83.6667 122.022C84.984 124.054 86.3459 126.063 87.8305 127.971C88.958 129.422 90.2529 130.751 91.5925 132.023C92.4743 132.86 93.5572 133.508 94.573 134.2C95.3767 134.747 96.2028 135.249 97.2186 135.896C96.013 135.896 94.986 135.919 93.959 135.896V135.874ZM106.93 132.246C106.596 132.403 106.194 132.57 105.836 132.537C104.318 132.38 102.789 131.934 101.282 131.99C99.6968 132.045 98.5917 131.108 97.4084 130.46C96.0242 129.701 94.8632 128.507 93.6353 127.458C92.7422 126.699 91.838 125.918 91.0455 125.058C90.1189 124.054 89.2817 122.982 88.4557 121.888C87.2389 120.281 85.8993 118.729 84.9058 116.999C83.5886 114.7 82.2937 112.334 81.4342 109.833C80.3402 106.652 79.7932 103.304 79.7597 99.888C79.7485 98.1021 79.302 96.3273 79.1904 94.5414C79.0564 92.443 79.1123 90.3334 79.0229 88.2349C78.9783 86.996 78.7327 85.757 78.7327 84.518C78.7327 81.9731 78.8667 79.4282 78.8667 76.8721C78.8667 75.2871 78.6657 73.7021 78.6769 72.1171C78.6881 70.4652 78.8555 68.802 78.9336 67.1501C79.0118 65.3865 79.0118 63.6229 79.1123 61.8705C79.3467 57.7183 79.3132 53.5437 80.2286 49.4584C80.5523 48.0186 80.876 46.5675 81.1997 45.1276C81.3225 45.1276 81.4453 45.1276 81.5681 45.1276C84.5486 48.5208 87.5291 51.9029 90.4985 55.2961C91.6483 56.6132 92.8762 57.8745 93.9144 59.2809C95.5218 61.4575 96.9842 63.7345 98.5247 65.9669C99.1275 66.8375 99.8196 67.6412 100.367 68.5453C100.947 69.5164 101.371 70.588 101.918 71.5814C102.934 73.4342 104.039 75.2313 105.01 77.1065C105.948 78.9147 106.808 80.7676 107.6 82.6317C108.884 85.6231 110.123 88.6368 111.295 91.6728C111.853 93.1127 112.188 94.6419 112.668 96.1153C113.025 97.1868 113.517 98.2249 113.829 99.3076C114.555 101.774 115.28 104.241 115.861 106.741C116.307 108.684 116.72 110.682 116.787 112.668C116.865 115.202 117.167 117.792 116.207 120.292C115.448 122.29 114.878 124.355 114.186 126.386C113.461 128.541 111.976 129.958 109.866 130.795C108.85 131.197 107.902 131.778 106.908 132.235L106.93 132.246ZM217.433 401.327C217.299 403.671 216.863 405.992 216.506 408.325C216.361 409.252 216.35 410.58 215.769 410.971C214.687 411.696 213.247 411.997 211.918 412.254C209.06 412.801 206.169 412.723 203.278 412.489C202.686 412.444 202.195 412.399 202.463 411.495C202.921 409.933 203.289 408.348 203.535 406.74C203.836 404.843 204.026 402.912 204.16 400.992C204.35 398.291 204.584 395.578 204.528 392.866C204.461 389.696 204.227 386.515 203.859 383.367C203.412 379.55 202.787 375.744 202.151 371.949C201.838 370.073 201.302 368.243 200.9 366.379C200.42 364.213 200.052 362.014 199.494 359.871C198.802 357.159 197.987 354.469 197.183 351.79C196.257 348.665 195.352 345.528 194.303 342.436C193.209 339.222 191.959 336.074 190.776 332.893C189.536 329.578 188.309 326.263 187.025 322.97C186.411 321.396 185.663 319.878 185.015 318.316C184.424 316.887 183.944 315.402 183.33 313.974C182.526 312.087 181.633 310.245 180.807 308.37C179.791 306.071 178.865 303.727 177.793 301.461C176.621 298.994 175.304 296.617 174.098 294.172C172.502 290.935 170.984 287.665 169.343 284.45C168.528 282.843 167.523 281.347 166.641 279.773C164.978 276.827 163.326 273.88 161.707 270.911C160.658 269.002 159.675 267.049 158.66 265.118C156.628 261.289 154.585 257.461 152.531 253.643C151.381 251.5 150.12 249.424 149.004 247.259C146.816 243.017 144.717 238.731 142.54 234.49C141.368 232.213 140.051 230.002 138.868 227.714C137.416 224.901 136.043 222.055 134.659 219.22C132.884 215.559 131.054 211.909 129.39 208.203C127.727 204.509 126.254 200.736 124.68 196.997C123.072 193.146 121.398 189.328 119.835 185.466C118.573 182.33 117.401 179.149 116.251 175.968C115.794 174.695 115.794 173.144 115.046 172.128C114.075 170.8 113.896 169.315 113.483 167.875C113.048 166.38 112.88 164.817 112.59 163.288C112.088 160.631 111.552 157.975 111.083 155.307C110.547 152.237 109.844 149.179 109.654 146.076C109.476 143.364 109.855 140.607 110.101 137.872C110.134 137.492 110.77 137.158 111.161 136.834C111.507 136.544 111.898 136.309 112.367 135.986C112.523 138.017 112.612 139.982 112.858 141.924C113.148 144.279 113.584 146.623 113.93 148.978C114.287 151.434 114.521 153.912 114.99 156.356C115.425 158.611 116.017 160.843 116.665 163.042C117.58 166.123 118.54 169.203 119.634 172.228C120.516 174.639 121.643 176.961 122.637 179.327C123.452 181.247 124.233 183.189 125.059 185.109C125.907 187.063 126.789 189.005 127.649 190.958C128.386 192.621 129.078 194.307 129.848 195.947C130.942 198.28 132.081 200.591 133.197 202.924C133.967 204.531 134.682 206.161 135.474 207.757C136.512 209.889 137.595 211.998 138.656 214.119C139.85 216.519 141.011 218.93 142.261 221.296C143.5 223.629 144.829 225.917 146.135 228.217C147.564 230.728 149.026 233.228 150.433 235.751C152.007 238.586 153.514 241.455 155.076 244.301C156.092 246.165 157.153 248.007 158.191 249.848C158.961 251.221 159.698 252.605 160.49 253.967C161.662 255.987 162.879 257.985 164.04 260.006C165 261.658 165.893 263.354 166.864 264.995C168.74 268.143 170.682 271.257 172.558 274.416C173.986 276.827 175.348 279.293 176.755 281.716C178.139 284.104 179.568 286.448 180.919 288.848C181.767 290.366 182.504 291.94 183.319 293.469C184.033 294.797 184.859 296.07 185.551 297.42C186.656 299.552 187.683 301.718 188.744 303.861C189.749 305.892 190.753 307.935 191.747 309.978C192.417 311.362 193.075 312.746 193.723 314.141C194.549 315.905 195.419 317.646 196.19 319.432C197.295 321.988 198.322 324.577 199.416 327.133C200.264 329.12 201.224 331.062 202.05 333.06C202.91 335.159 203.635 337.302 204.461 339.4C204.975 340.706 205.6 341.956 206.125 343.262C206.482 344.144 206.772 345.048 207.062 345.952C208.19 349.457 209.328 352.951 210.422 356.467C211.438 359.76 212.521 363.041 213.347 366.39C214.117 369.493 214.62 372.663 215.211 375.811C215.814 379.014 216.484 382.217 216.942 385.443C217.288 387.821 217.444 390.232 217.522 392.643C217.611 395.534 217.623 398.447 217.455 401.338L217.433 401.327Z" fill="#A61E22"/>
</g>
<defs>
<clipPath id="clip0_2033_199">
<rect width="220" height="415" fill="white"/>
</clipPath>
</defs>
</svg>
